#!OML:ASF I:\Actors\actors\Patient Classification 2\Patient 1\Session 1\actor1.ASF
:FULLY-SPECIFIED
:DEGREES
874
root -0.530345 18.9106 5.45536 9.69763 8.4465 -2.37853
lowerback 23.5158 3.41733 2.80603
upperback 3.29906 5.32949 1.63352
thorax -9.35165 2.44998 -1.43877
lowerneck -0.974598 -2.90643 -0.726449
upperneck 1.50652 -3.6981 -10.1746
head 0.45072 -1.90915 -3.14442
rclavicle 4.37326e-015 7.15625e-015
rhumerus 30.4139 19.2429 -57.218
rradius 129.758
rwrist -3.20489
rhand -36.4131 -44.2929
rfingers 7.12502
rthumb -9.50835 -74.0584
lclavicle 4.37326e-015 7.15625e-015
lhumerus -49.7769 -27.3619 102.89
lradius 112.423
lwrist -3.32627
lhand -12.6349 -35.3978
lfingers 7.12502
lthumb 13.4452 -5.85175
rfemur 0 0 0
rtibia 0
rfoot 0 0
rtoes 0
lfemur -21.0269 -4.33537 -14.101
ltibia 27.1804
lfoot -17.1421 7.52021
ltoes -56.8803
875
root -0.530264 18.9109 5.46634 9.69883 8.51647 -2.37463
lowerback 23.4072 3.41394 2.67893
upperback 3.32199 5.29169 1.65831
thorax -9.28399 2.43963 -1.32082
lowerneck -1.12679 -2.96112 -0.813782
upperneck 0.823023 -3.82668 -10.2709
head 0.253701 -1.95282 -3.15491
rclavicle 4.09496e-014 1.19271e-014
rhumerus 31.2412 18.7113 -56.693
rradius 129.761
rwrist -3.4151
rhand -36.3853 -44.07
rfingers 7.12502
rthumb -9.48157 -73.8367
lclavicle 4.09496e-014 1.19271e-014
lhumerus -49.5978 -27.272 102.896
lradius 112.42
lwrist -3.41221
lhand -12.5474 -35.3327
lfingers 7.12502
lthumb 13.5295 -5.79222
rfemur 0 0 0
rtibia 0
rfoot 0 0
rtoes 0
lfemur -21.0147 -4.28058 -14.1117
ltibia 27.1917
lfoot -17.1267 7.43782
ltoes -56.9276
876
root -0.529761 18.9125 5.47549 9.72143 8.57381 -2.37595
lowerback 23.2886 3.42238 2.55351
upperback 3.34244 5.27255 1.71004
thorax -9.21568 2.43835 -1.17957
lowerneck -1.32917 -3.01181 -1.06367
upperneck 0.247036 -3.93554 -10.2663
head 0.10592 -1.99093 -3.10423
rclavicle 2.90226e-014 -2.8625e-014
rhumerus 32.0966 18.236 -56.0961
rradius 129.718
rwrist -3.66941
rhand -36.3969 -43.7307
rfingers 7.12502
rthumb -9.49273 -73.4969
lclavicle 2.90226e-014 -2.8625e-014
lhumerus -49.3858 -27.1729 102.953
lradius 112.387
lwrist -3.41402
lhand -12.4408 -35.2559
lfingers 7.12502
lthumb 13.6322 -5.72232
rfemur 0 0 0
rtibia 0
rfoot 0 0
rtoes 0
lfemur -21.0316 -4.35806 -14.087
ltibia 27.2237
lfoot -17.1634 7.39722
ltoes -56.6466
877
root -0.53009 18.9148 5.48552 9.74753 8.62634 -2.3601
lowerback 23.2447 3.433 2.50669
upperback 3.29473 5.27284 1.68474
thorax -9.24732 2.43875 -1.18006
lowerneck -1.40453 -3.06308 -1.24077
upperneck -0.329079 -4.05198 -10.2285
head -0.0646546 -2.02823 -3.05376
rclavicle -1.59028e-015 2.46493e-014
rhumerus 32.8161 17.7526 -55.6085
rradius 129.56
rwrist -3.79399
rhand -36.5497 -42.8008
rfingers 7.12502
rthumb -9.6402 -72.5602
lclavicle -1.59028e-015 2.46493e-014
lhumerus -49.2927 -27.1767 102.97
lradius 112.348
lwrist -3.42456
lhand -12.3492 -35.2298
lfingers 7.12502
lthumb 13.7205 -5.70218
rfemur 0 0 0
rtibia 0
rfoot 0 0
rtoes 0
lfemur -21.0469 -4.55698 -14.0513
ltibia 27.2701
lfoot -17.285 7.38249
ltoes -56.0942
878
root -0.532602 18.9153 5.49436 9.75327 8.6995 -2.39292
lowerback 23.2847 3.43578 2.53886
upperback 3.19968 5.28383 1.6289
thorax -9.36567 2.43796 -1.26887
lowerneck -1.41281 -3.14516 -1.30953
upperneck -0.914788 -4.21611 -10.2295
head -0.25521 -2.0866 -3.03557
rclavicle 7.95139e-015 1.98785e-014
rhumerus 33.3647 17.3111 -55.1988
rradius 129.357
rwrist -3.43007
rhand -36.7106 -41.4824
rfingers 7.12502
rthumb -9.79542 -71.2346
lclavicle 7.95139e-015 1.98785e-014
lhumerus -49.2547 -27.1943 102.944
lradius 112.295
lwrist -3.49045
lhand -12.7928 -35.5431
lfingers 7.12502
lthumb 13.2929 -5.98708
rfemur 0 0 0
rtibia 0
rfoot 0 0
rtoes 0
lfemur -21.0733 -4.62632 -13.9798
ltibia 27.3167
lfoot -17.3394 7.31595
ltoes -55.8501
879
root -0.535752 18.9155 5.50231 9.74849 8.79833 -2.46085
lowerback 23.3321 3.44526 2.62944
upperback 3.12007 5.31845 1.58049
thorax -9.46548 2.44676 -1.38951
lowerneck -1.4549 -3.26548 -1.46316
upperneck -1.48299 -4.42594 -10.1174
head -0.431664 -2.16887 -2.96469
rclavicle 8.18993e-014 3.81667e-014
rhumerus 33.8465 16.9225 -54.7975
rradius 129.209
rwrist -2.72932
rhand -36.7165 -40.8285
rfingers 7.12502
rthumb -9.8011 -70.5804
lclavicle 8.18993e-014 3.81667e-014
lhumerus -49.2146 -27.3 102.94
lradius 112.24
lwrist -3.44138
lhand -13.6729 -35.9799
lfingers 7.12502
lthumb 12.4445 -6.37034
rfemur 0 0 0
rtibia 0
rfoot 0 0
rtoes 0
lfemur -21.1038 -4.60779 -13.887
ltibia 27.3534
lfoot -17.3268 7.26323
ltoes -55.9558
880
root -0.537014 18.9169 5.51415 9.74342 8.88169 -2.49971
lowerback 23.28 3.45232 2.63718
upperback 3.09938 5.32704 1.56309
thorax -9.45807 2.45056 -1.4129
lowerneck -1.55747 -3.35165 -1.6574
upperneck -2.06402 -4.58654 -9.99035
head -0.597391 -2.22713 -2.88337
rclavicle -7.95139e-016 1.43125e-014
rhumerus 34.4412 16.4377 -54.5165
rradius 129.116
rwrist -2.87367
rhand -36.6361 -40.0327
rfingers 7.12502
rthumb -9.72356 -69.7882
lclavicle -7.95139e-016 1.43125e-014
lhumerus -49.1355 -27.3477 102.901
lradius 112.222
lwrist -3.30518
lhand -13.8755 -36.0219
lfingers 7.12502
lthumb 12.2491 -6.40059
rfemur 0 0 0
rtibia 0
rfoot 0 0
rtoes 0
lfemur -21.09 -4.61895 -13.83
ltibia 27.3737
lfoot -17.3486 7.22645
ltoes -55.9273
881
root -0.536963 18.9172 5.52736 9.7386 8.92639 -2.52016
lowerback 23.1882 3.45309 2.61539
upperback 3.10689 5.31698 1.53966
thorax -9.40074 2.44824 -1.41689
lowerneck -1.7349 -3.37452 -1.72542
upperneck -2.59938 -4.65736 -9.9866
head -0.738082 -2.24442 -2.86956
rclavicle 3.06128e-014 4.77083e-015
rhumerus 35.0923 15.9048 -54.2473
rradius 128.983
rwrist -3.09662
rhand -36.6299 -39.0158
rfingers 7.12502
rthumb -9.71758 -68.7717
lclavicle 3.06128e-014 4.77083e-015
lhumerus -49.0073 -27.2744 102.755
lradius 112.237
lwrist -3.34071
lhand -13.4701 -35.8689
lfingers 7.12502
lthumb 12.64 -6.2714
rfemur 0 0 0
rtibia 0
rfoot 0 0
rtoes 0
lfemur -21.0526 -4.6291 -13.8018
ltibia 27.3791
lfoot -17.3931 7.20041
ltoes -55.814
882
root -0.537363 18.9164 5.539 9.75717 8.98428 -2.53907
lowerback 23.1237 3.46651 2.61141
upperback 3.07568 5.32966 1.51071
thorax -9.39821 2.45399 -1.44711
lowerneck -1.85609 -3.4083 -1.70052
upperneck -3.07768 -4.74366 -10.0616
head -0.876287 -2.27025 -2.8989
rclavicle 5.08889e-014 -1.11319e-014
rhumerus 35.6707 15.3625 -53.9282
rradius 128.931
rwrist -3.39678
rhand -36.5803 -38.9224
rfingers 7.12502
rthumb -9.66969 -68.6805
lclavicle 5.08889e-014 -1.11319e-014
lhumerus -48.9355 -27.2282 102.627
lradius 112.265
lwrist -3.53314
lhand -13.0792 -35.6865
lfingers 7.12502
lthumb 13.0169 -6.11264
rfemur 0 0 0
rtibia 0
rfoot 0 0
rtoes 0
lfemur -21.0491 -4.63995 -13.7727
ltibia 27.3721
lfoot -17.4256 7.16597
ltoes -55.7835
883
root -0.537439 18.9159 5.55063 9.7946 9.0569 -2.55972
lowerback 23.077 3.48633 2.6237
upperback 3.00552 5.35668 1.48016
thorax -9.44646 2.46411 -1.49528
lowerneck -1.89307 -3.49554 -1.669
upperneck -3.56051 -4.90811 -10.1587
head -1.03594 -2.33205 -2.93536
rclavicle -1.98785e-014 -7.95139e-015
rhumerus 36.1605 15.0711 -53.4818
rradius 128.857
rwrist -2.75437
rhand -36.7639 -39.6323
rfingers 7.12502
rthumb -9.84688 -69.3821
lclavicle -1.98785e-014 -7.95139e-015
lhumerus -48.9642 -27.2564 102.555
lradius 112.323
lwrist -3.58142
lhand -12.7364 -35.4382
lfingers 7.12502
lthumb 13.3473 -5.88571
rfemur 0 0 0
rtibia 0
rfoot 0 0
rtoes 0
lfemur -21.0639 -4.63584 -13.7428
ltibia 27.3569
lfoot -17.4224 7.09367
ltoes -55.8231
884
root -0.536349 18.9151 5.5619 9.79316 9.11991 -2.53453
lowerback 23.0794 3.49134 2.62848
upperback 2.96405 5.36028 1.42415
thorax -9.48765 2.46315 -1.5622
lowerneck -1.99646 -3.56218 -1.76082
upperneck -4.03382 -5.0339 -10.0886
head -1.17081 -2.37666 -2.89445
rclavicle -1.08139e-013 1.27222e-014
rhumerus 37.2332 14.406 -52.2646
rradius 128.926
rwrist -3.00205
rhand -37.0556 -40.6006
rfingers 7.12502
rthumb -10.1283 -70.3368
lclavicle -1.08139e-013 1.27222e-014
lhumerus -48.9703 -27.2819 102.456
lradius 112.366
lwrist -3.46808
lhand -12.3964 -35.3574
lfingers 7.12502
lthumb 13.675 -5.82666
rfemur 0 0 0
rtibia 0
rfoot 0 0
rtoes 0
lfemur -21.0291 -4.64074 -13.7753
ltibia 27.3448
lfoot -17.3915 7.06382
ltoes -55.9663
885
root -0.535173 18.9146 5.5729 9.772 9.19136 -2.46158
lowerback 23.1087 3.48672 2.5832
upperback 2.93305 5.33858 1.36005
thorax -9.53623 2.45174 -1.60369
lowerneck -2.1748 -3.60109 -1.92183
upperneck -4.40489 -5.10251 -9.89525
head -1.25092 -2.3995 -2.80174
rclavicle 9.22361e-014 7.95139e-015
rhumerus 37.2402 14.2727 -52.7662
rradius 128.74
rwrist -2.65554
rhand -36.8506 -39.4786
rfingers 7.12502
rthumb -9.93055 -69.2244
lclavicle 9.22361e-014 7.95139e-015
lhumerus -48.9487 -27.2437 102.352
lradius 112.374
lwrist -3.43224
lhand -11.9506 -35.3509
lfingers 7.12502
lthumb 14.1046 -5.84961
rfemur 0 0 0
rtibia 0
rfoot 0 0
rtoes 0
lfemur -20.9726 -4.71576 -13.8524
ltibia 27.3445
lfoot -17.3953 7.07307
ltoes -55.9692
886
root -0.534878 18.9153 5.58467 9.7905 9.27701 -2.4426
lowerback 23.0724 3.47628 2.56828
upperback 2.87883 5.31809 1.31882
thorax -9.5753 2.44058 -1.63415
lowerneck -2.342 -3.62369 -1.94711
upperneck -4.70514 -5.1492 -9.83783
head -1.31786 -2.41464 -2.77994
rclavicle 2.74323e-014 -1.66979e-014
rhumerus 37.652 13.9192 -52.5515
rradius 128.711
rwrist -2.57625
rhand -37.0165 -39.0486
rfingers 7.12502
rthumb -10.0906 -68.7867
lclavicle 2.74323e-014 -1.66979e-014
lhumerus -48.9666 -27.1694 102.276
lradius 112.379
lwrist -3.46567
lhand -11.5325 -35.2472
lfingers 7.12502
lthumb 14.5075 -5.77446
rfemur 0 0 0
rtibia 0
rfoot 0 0
rtoes 0
lfemur -20.9727 -4.83133 -13.8492
ltibia 27.3543
lfoot -17.436 7.09887
ltoes -55.8182
887
root -0.534063 18.9156 5.5967 9.83409 9.34373 -2.50133
lowerback 22.9825 3.46511 2.62838
upperback 2.81293 5.31504 1.28851
thorax -9.59244 2.43572 -1.69688
lowerneck -2.49849 -3.61422 -1.8077
upperneck -4.97367 -5.15827 -9.91454
head -1.38443 -2.41337 -2.83353
rclavicle 6.63941e-014 -1.74931e-014
rhumerus 38.1463 13.5013 -52.2687
rradius 128.694
rwrist -2.71798
rhand -37.3508 -38.5863
rfingers 7.12502
rthumb -10.413 -68.3084
lclavicle 6.63941e-014 -1.74931e-014
lhumerus -49.028 -27.1361 102.213
lradius 112.406
lwrist -3.49778
lhand -11.2915 -35.0252
lfingers 7.12502
lthumb 14.7397 -5.56925
rfemur 0 0 0
rtibia 0
rfoot 0 0
rtoes 0
lfemur -21.0089 -4.90386 -13.7657
ltibia 27.3686
lfoot -17.4733 7.13621
ltoes -55.7992
888
root -0.532475 18.916 5.60841 9.86699 9.39752 -2.53674
lowerback 22.9285 3.47116 2.69418
upperback 2.75113 5.33643 1.25601
thorax -9.62238 2.44155 -1.77475
lowerneck -2.65386 -3.62797 -1.74332
upperneck -5.2417 -5.19787 -10.0028
head -1.451 -2.42561 -2.87754
rclavicle 0 -2.14687e-014
rhumerus 38.5712 13.0658 -52.0057
rradius 128.649
rwrist -2.79799
rhand -37.5284 -38.2031
rfingers 7.12502
rthumb -10.5844 -67.9166
lclavicle 0 -2.14687e-014
lhumerus -49.0914 -27.1649 102.187
lradius 112.465
lwrist -3.53534
lhand -11.0378 -34.7802
lfingers 7.12502
lthumb 14.984 -5.34225
rfemur 0 0 0
rtibia 0
rfoot 0 0
rtoes 0
lfemur -21.0278 -4.93805 -13.7202
ltibia 27.3853
lfoot -17.4984 7.11966
ltoes -55.8027
889
root -0.532183 18.9176 5.62107 9.88128 9.46105 -2.53475
lowerback 22.8885 3.50043 2.75414
upperback 2.72054 5.38683 1.23274
thorax -9.62516 2.4624 -1.84744
lowerneck -2.79625 -3.68689 -1.89117
upperneck -5.55627 -5.29392 -9.96705
head -1.52704 -2.46073 -2.84046
rclavicle 1.15295e-014 -7.15625e-015
rhumerus 38.8617 12.7429 -51.7464
rradius 128.632
rwrist -2.51329
rhand -37.6784 -37.9859
rfingers 7.12502
rthumb -10.7291 -67.692
lclavicle 1.15295e-014 -7.15625e-015
lhumerus -49.0704 -27.2206 102.221
lradius 112.457
lwrist -3.55394
lhand -10.7255 -34.6905
lfingers 7.12502
lthumb 15.2849 -5.27524
rfemur 0 0 0
rtibia 0
rfoot 0 0
rtoes 0
lfemur -21.0158 -4.9716 -13.7146
ltibia 27.3887
lfoot -17.4976 7.0782
ltoes -55.7562
